<!--<svg xmlns="http://www.w3.org/2000/svg" width="36" height="36" viewBox="0 0 36 36"><path fill="#da9f83" d="M34.966 17.87c.414 4.649-2.082 8.731-4.831 12.206c-2.304 2.554-5.602 3.631-8.901 4.285c-3.198 1.089-6.766.739-9.716-.895c-1.034-.43-2.248-.559-3.167-1.176c-2.879-1.846-4.524-4.927-5.779-8.029c-1.627-2.916-1.74-6.483-1.414-9.742c.219-1.107.967-2.032 1.388-3.051c.729-2.127 1.916-3.963 3.569-5.475c.786-.787 1.377-1.823 2.303-2.444c.919-.617 2.103-.758 3.137-1.188c1.016-.422 1.968-1.08 3.072-1.299c1.072-.213 2.201.106 3.335.106c2.235-.056 4.482.148 6.575.789c1.034.43 1.781 1.38 2.7 1.997c.926.622 1.999 1.04 2.784 1.827c1.603 1.566 2.984 3.411 3.94 5.446c.65 2.109.957 4.389 1.005 6.643"/><path fill="#8a4b38" d="M22.638 16.947a2.245 2.245 0 0 1 1.386 4.271c-1.181.384-3.871.201-4.255-.978c-.383-1.181 1.687-2.911 2.869-3.293m8.57-.672a1.069 1.069 0 1 1-1.638-1.377c.381-.451 1.514-1.057 1.966-.677c.453.381.053 1.601-.328 2.054m-22-7A1.069 1.069 0 1 1 7.57 7.898c.381-.451 1.514-1.057 1.966-.677c.453.381.053 1.601-.328 2.054m12.093-1.894a1.607 1.607 0 1 1 1.732-2.71c.749.479 1.872 2.05 1.394 2.798c-.48.75-2.377.392-3.126-.088m-7.926 6.217a2.145 2.145 0 1 1 3.869-1.856c.513 1.07.682 3.643-.387 4.154c-1.071.514-2.971-1.227-3.482-2.298m1.024 14.099a1.92 1.92 0 0 1 2.672-.492c.874.605 1.094 1.801.49 2.675s-2.528 2.147-3.4 1.544c-.875-.604-.366-2.854.238-3.727m10.013-.406a1.473 1.473 0 1 1 1.586-2.481c.686.438 1.715 1.878 1.276 2.562c-.438.688-2.176.359-2.862-.081M5.536 18.42a2.069 2.069 0 1 1 3.084 2.759c-.763.854-2.992 1.955-3.843 1.191c-.854-.763-.005-3.099.759-3.95"/></svg>-->
<svg xmlns="http://www.w3.org/2000/svg" viewBox="0 0 64 64"><path fill="#dda85f" d="m36.9 22.7l2.5-18.6C37 3.5 34.6 2 32 2s-5 1.5-7.5 2.2c-2.5.6-5.3.5-7.5 1.8s-3.6 3.8-5.4 5.6S7.3 14.8 6 17s-1.2 5-1.9 7.5C3.5 27 2 29.4 2 32s1.5 5 2.2 7.5c.6 2.5.5 5.3 1.8 7.5s3.8 3.6 5.6 5.4s3.1 4.3 5.4 5.6c2.2 1.3 5 1.2 7.5 1.9c2.5.6 4.9 2.1 7.5 2.1s5-1.5 7.5-2.2s5.3-.6 7.5-1.9s3.6-3.8 5.4-5.6s4.3-3.1 5.6-5.4c1.3-2.2 1.2-5 1.9-7.5c.6-2.4 2.1-4.8 2.1-7.4s-2.1-8.1-2.1-8.1z"/><path fill="#f2cb7d" d="M59.4 22.4c-1 .3-2.4.2-3.9-.4c-2.1-.8-3.4-2.5-3.8-4.5c-1 .3-3.4 0-5-1c-2.4-1.5-2.9-5.7-2.9-5.7c-2.7-.8-4.7-4-4.4-6.7c-2.2-.6-5-.5-7.4-.5s-4.6 1.4-6.8 2c-2.3.6-4.9.5-6.9 1.7s-3.3 3.5-4.9 5.1c-1.7 1.7-4 2.9-5.1 4.9c-1.2 2-1.1 4.6-1.7 6.9c-.6 2.2-2 4.4-2 6.8s1.4 4.6 2 6.8c.6 2.3.5 4.9 1.7 6.9s3.5 3.3 5.1 4.9c1.7 1.7 2.9 4 4.9 5.1c2 1.2 4.6 1.1 6.9 1.7c2.2.6 4.4 2 6.8 2s4.6-1.4 6.8-2c2.3-.6 4.9-.5 6.9-1.7s3.3-3.5 4.9-5.1c1.7-1.7 4-2.9 5.1-4.9c1.2-2 1.1-4.6 1.7-6.9c.6-2.2 3-4 3.3-6.4c.8-3.9-1.2-8.3-1.3-9"/><path fill="#dda85f" d="m50.1 10.8l-1.4 1.4l-1.3-1.4l1.3-1.3zm5.7 7l-.6.7l-.7-.7l.7-.7zm-5-4.6l-.7.7l-.7-.7l.7-.7zm-6.2-6.1l-.7.7l-.7-.7l.7-.7zm12.6 13.2l-.7.7l-.7-.7l.7-.7zm.6-2.5l-.7.7l-.7-.7l.7-.7z"/><path fill="#6d4934" d="M11.8 20.6c-1 1.7.5 4.8 2.5 5.7c2.9 1.2 4.6 1.4 6.4-1.7c.6-1.1 1.4-4 1.1-4.7c-.4-1-2.1-3-3.2-3c-3.1.1-6.1 2.5-6.8 3.7"/><path fill="#a37f6a" d="M12.3 20.6c-.7 1.2 1.1 4.8 3.5 4.5c3.3-.4 3-7.2 1.6-7.2c-2.4 0-4.6 1.8-5.1 2.7"/><path fill="#6d4934" d="M45.2 39.1c1.4-.4 2.4-2.9 1.8-4.4c-.9-2.3-1.8-3.3-4.4-2.6c-.9.3-3 1.4-3.2 1.9c-.3.8-.5 2.8.1 3.4c1.7 1.7 4.7 2 5.7 1.7"/><path fill="#a37f6a" d="M43.8 36.7c1.1-.3 2.8-3.7 1-3.9c-3.1-.5-5.5 1-5.2 2.7s3.4 1.4 4.2 1.2"/><path fill="#6d4934" d="M24.9 44.5c-.3-1.2-2.5-2.1-3.9-1.5c-2 .8-2.9 1.5-2.2 3.8c.2.8 1.2 2.6 1.7 2.7c.7.3 2.4.4 2.9-.1c1.5-1.4 1.7-4 1.5-4.9"/><path fill="#a37f6a" d="M23.2 43.6c-.2-.9-4.4.4-4 2c.8 2.7.8 3.1 1.6 3c1.5-.4 2.5-4.3 2.4-5"/><path fill="#6d4934" d="M51.1 25.5c-1.2.3-2.1 2.5-1.5 3.9c.8 2 2.7 2.3 4.8 1.2c1.8-.9 1.9-4.1 1.4-4.7c-1.5-1.5-3.8-.6-4.7-.4"/><path fill="#a37f6a" d="M50.6 26.6c-.6.7-1.1 3.5.4 3.1c2.7-.8 4.6-3.5 3.4-3.9c-1.5-.5-3.1 0-3.8.8"/><path fill="#6d4934" d="m22.74 16.112l1.98-1.98l1.98 1.98l-1.98 1.98z"/><path fill="#dda85f" d="m14.706 33.483l1.979-1.98l1.98 1.979l-1.979 1.98zm19.992 11.328l1.98-1.98l1.98 1.98l-1.98 1.98zm-2.66-5.522l2.687-2.687l2.687 2.687l-2.687 2.687zM24.696 9.827l2.687-2.687l2.687 2.687l-2.687 2.687z"/><path fill="#6d4934" d="m41.122 46.347l1.98-1.98l1.98 1.98l-1.98 1.98zm7.954-11.132l1.98-1.98l1.98 1.98l-1.98 1.98zm-7.264-10.578l.99-.99l.99.99l-.99.99zM13.726 38.266l.99-.99l.99.99l-.99.99z"/></svg>