<?xml version="1.0" encoding="UTF-8"?>
<!DOCTYPE svg PUBLIC "-//W3C//DTD SVG 1.1//EN" "http://www.w3.org/Graphics/SVG/1.1/DTD/svg11.dtd">
<svg xmlns="http://www.w3.org/2000/svg" version="1.1" width="339px" height="290px" style="shape-rendering:geometricPrecision; text-rendering:geometricPrecision; image-rendering:optimizeQuality; fill-rule:evenodd; clip-rule:evenodd" xmlns:xlink="http://www.w3.org/1999/xlink">
<g><path style="opacity:0.981" fill="#f99520" d="M 160.5,-0.5 C 166.167,-0.5 171.833,-0.5 177.5,-0.5C 182.73,1.78567 187.73,4.619 192.5,8C 241.395,56.7283 290.062,105.562 338.5,154.5C 338.5,158.5 338.5,162.5 338.5,166.5C 336.628,169.529 333.961,171.695 330.5,173C 324.833,173.333 319.167,173.667 313.5,174C 308.895,174.715 305.729,177.215 304,181.5C 303.946,208.535 303.28,235.535 302,262.5C 297.358,277.314 287.524,286.314 272.5,289.5C 268.833,289.5 265.167,289.5 261.5,289.5C 245.822,285.321 235.988,275.321 232,259.5C 231.167,246.487 231.334,233.487 232.5,220.5C 234.692,219.141 236.359,217.308 237.5,215C 244.158,214.5 250.825,214.334 257.5,214.5C 257.5,215.833 257.5,217.167 257.5,218.5C 262.833,218.5 268.167,218.5 273.5,218.5C 273.666,208.161 273.5,197.828 273,187.5C 268,188.833 263,188.833 258,187.5C 257.506,189.134 257.34,190.801 257.5,192.5C 250.492,192.666 243.492,192.5 236.5,192C 227.536,182.717 217.202,181.051 205.5,187C 186.467,196.029 171.134,209.363 159.5,227C 162,230.833 164.5,234.667 167,238.5C 175.996,227 187.163,218.333 200.5,212.5C 202.435,215.938 204.935,218.938 208,221.5C 208.667,233.5 208.667,245.5 208,257.5C 204.771,274.893 194.605,285.56 177.5,289.5C 173.833,289.5 170.167,289.5 166.5,289.5C 150.701,285.87 140.535,276.204 136,260.5C 135.333,231.5 135.333,202.5 136,173.5C 153.186,164.459 159.519,150.459 155,131.5C 153.171,127.172 150.838,123.172 148,119.5C 145.554,126.842 142.72,134.009 139.5,141C 133.571,143.046 127.571,143.88 121.5,143.5C 117.96,139.13 114.626,134.63 111.5,130C 114.141,123.243 116.474,116.41 118.5,109.5C 100.509,113.158 91.1753,124.158 90.5,142.5C 90.6998,157.028 97.3665,167.362 110.5,173.5C 111.667,201.494 111.833,229.494 111,257.5C 106.87,275.131 96.0363,285.798 78.5,289.5C 74.8333,289.5 71.1667,289.5 67.5,289.5C 49.0641,285.562 38.2307,274.228 35,255.5C 34.9817,230.079 34.315,204.746 33,179.5C 30.8995,176.533 28.0662,174.7 24.5,174C 18.8333,173.667 13.1667,173.333 7.5,173C 4.03864,171.695 1.37197,169.529 -0.5,166.5C -0.5,162.5 -0.5,158.5 -0.5,154.5C 48.2715,105.228 97.2715,56.0616 146.5,7C 150.815,3.67822 155.482,1.17822 160.5,-0.5 Z"/></g>
</svg>
